<svg width="4098" height="4440" viewBox="0 0 4098 4440" fill="none" xmlns="http://www.w3.org/2000/svg">
<g id="ExpoBuilding">
<g id="Group 8">
<g id="rectangleBuilding">
<path d="M3729 1562H4098V1785H3729V1562Z" fill="#004AC8"/>
<path d="M3729 1563H4098V1561H3729V1563ZM4098 1784H3729V1786H4098V1784Z" fill="black"/>
</g>
<g id="rectangleBuilding_2">
<path d="M3729 1339H4098V1562H3729V1339Z" fill="#004AC8"/>
<path d="M3729 1340H4098V1338H3729V1340ZM4098 1561H3729V1563H4098V1561Z" fill="black"/>
</g>
<g id="rectangleBuilding_3">
<path d="M3729 1116H4098V1339H3729V1116Z" fill="#004AC8"/>
<path d="M3729 1116V1115H3728V1116H3729ZM3729 1339H3728V1340H3729V1339ZM3729 1117H4098V1115H3729V1117ZM4098 1338H3729V1340H4098V1338ZM3730 1339V1116H3728V1339H3730Z" fill="black"/>
</g>
<g id="rectangleBuilding_4">
<path d="M3729 1H4098V224H3729V1Z" fill="#004AC8"/>
<path d="M3729 1V0H3728V1H3729ZM3729 224H3728V225H3729V224ZM3729 2H4098V0H3729V2ZM4098 223H3729V225H4098V223ZM3730 224V1H3728V224H3730Z" fill="black"/>
</g>
<g id="rectangleBuilding_5">
<path d="M3729 224H4098V447H3729V224Z" fill="#004AC8"/>
<path d="M3729 224V223H3728V224H3729ZM3729 447H3728V448H3729V447ZM3729 225H4098V223H3729V225ZM4098 446H3729V448H4098V446ZM3730 447V224H3728V447H3730Z" fill="black"/>
</g>
<g id="rectangleBuilding_6">
<path d="M3729 447H4098V670H3729V447Z" fill="#004AC8"/>
<path d="M3729 447V446H3728V447H3729ZM3729 670H3728V671H3729V670ZM3729 448H4098V446H3729V448ZM4098 669H3729V671H4098V669ZM3730 670V447H3728V670H3730Z" fill="black"/>
</g>
<g id="rectangleBuilding_7">
<path d="M3729 670H4098V893H3729V670Z" fill="#004AC8"/>
<path d="M3729 670V669H3728V670H3729ZM3729 893H3728V894H3729V893ZM3729 671H4098V669H3729V671ZM4098 892H3729V894H4098V892ZM3730 893V670H3728V893H3730Z" fill="black"/>
</g>
<g id="rectangleBuilding_8">
<path d="M3729 893H4098V1116H3729V893Z" fill="#004AC8"/>
<path d="M3729 893V892H3728V893H3729ZM3729 1116H3728V1117H3729V1116ZM3729 894H4098V892H3729V894ZM4098 1115H3729V1117H4098V1115ZM3730 1116V893H3728V1116H3730Z" fill="black"/>
</g>
<g id="rectangleBuilding_9">
<path d="M0 1116H369V1339H0V1116Z" fill="#004AC8"/>
<path d="M369 1116H370V1115H369V1116ZM369 1339V1340H370V1339H369ZM0 1117H369V1115H0V1117ZM368 1116V1339H370V1116H368ZM369 1338H0V1340H369V1338Z" fill="black"/>
</g>
<g id="rectangleBuilding_10">
<path d="M0 1H369V224H0V1Z" fill="#004AC8"/>
<path d="M369 1H370V0H369V1ZM369 224V225H370V224H369ZM0 2H369V0H0V2ZM368 1V224H370V1H368ZM369 223H0V225H369V223Z" fill="black"/>
</g>
<g id="rectangleBuilding_11">
<path d="M0 224H369V447H0V224Z" fill="#004AC8"/>
<path d="M369 224H370V223H369V224ZM369 447V448H370V447H369ZM0 225H369V223H0V225ZM368 224V447H370V224H368ZM369 446H0V448H369V446Z" fill="black"/>
</g>
<g id="rectangleBuilding_12">
<path d="M0 447H369V670H0V447Z" fill="#004AC8"/>
<path d="M369 447H370V446H369V447ZM369 670V671H370V670H369ZM0 448H369V446H0V448ZM368 447V670H370V447H368ZM369 669H0V671H369V669Z" fill="black"/>
</g>
<g id="rectangleBuilding_13">
<path d="M0 670H369V893H0V670Z" fill="#004AC8"/>
<path d="M369 670H370V669H369V670ZM369 893V894H370V893H369ZM0 671H369V669H0V671ZM368 670V893H370V670H368ZM369 892H0V894H369V892Z" fill="black"/>
</g>
<g id="rectangleBuilding_14">
<path d="M0 893H369V1116H0V893Z" fill="#004AC8"/>
<path d="M369 893H370V892H369V893ZM369 1116V1117H370V1116H369ZM0 894H369V892H0V894ZM368 893V1116H370V893H368ZM369 1115H0V1117H369V1115Z" fill="black"/>
</g>
<g id="rectangleBuilding_15">
<path d="M3729 4216H4098V4439H3729V4216Z" fill="#004AC8"/>
<path d="M3729 4217H4098V4215H3729V4217ZM4098 4438H3729V4440H4098V4438Z" fill="black"/>
</g>
<g id="rectangleBuilding_16">
<path d="M3729 3993H4098V4216H3729V3993Z" fill="#004AC8"/>
<path d="M3729 3994H4098V3992H3729V3994ZM4098 4215H3729V4217H4098V4215Z" fill="black"/>
</g>
<g id="rectangleBuilding_17">
<path d="M3729 3781H4098V4004H3729V3781Z" fill="#004AC8"/>
<path d="M3729 3782H4098V3780H3729V3782ZM4098 4003H3729V4005H4098V4003Z" fill="black"/>
</g>
<g id="rectangleBuilding_18">
<path d="M3729 3558H4098V3781H3729V3558Z" fill="#004AC8"/>
<path d="M3729 3559H4098V3557H3729V3559ZM4098 3780H3729V3782H4098V3780Z" fill="black"/>
</g>
<g id="rectangleBuilding_19">
<path d="M3729 3346H4098V3569H3729V3346Z" fill="#004AC8"/>
<path d="M3729 3347H4098V3345H3729V3347ZM4098 3568H3729V3570H4098V3568Z" fill="black"/>
</g>
<g id="rectangleBuilding_20">
<path d="M3729 3123H4098V3346H3729V3123Z" fill="#004AC8"/>
<path d="M3729 3124H4098V3122H3729V3124ZM4098 3345H3729V3347H4098V3345Z" fill="black"/>
</g>
<g id="rectangleBuilding_21">
<path d="M3729 2900H4098V3123H3729V2900Z" fill="#004AC8"/>
<path d="M3729 2901H4098V2899H3729V2901ZM4098 3122H3729V3124H4098V3122Z" fill="black"/>
</g>
<g id="rectangleBuilding_22">
<path d="M3729 2677H4098V2900H3729V2677Z" fill="#004AC8"/>
<path d="M3729 2678H4098V2676H3729V2678ZM4098 2899H3729V2901H4098V2899Z" fill="black"/>
</g>
<g id="rectangleBuilding_23">
<path d="M3729 2454H4098V2677H3729V2454Z" fill="#004AC8"/>
<path d="M3729 2455H4098V2453H3729V2455ZM4098 2676H3729V2678H4098V2676Z" fill="black"/>
</g>
<g id="rectangleBuilding_24">
<path d="M3729 2231H4098V2454H3729V2231Z" fill="#004AC8"/>
<path d="M3729 2232H4098V2230H3729V2232ZM4098 2453H3729V2455H4098V2453Z" fill="black"/>
</g>
<g id="rectangleBuilding_25">
<path d="M3729 2008H4098V2231H3729V2008Z" fill="#004AC8"/>
<path d="M3729 2009H4098V2007H3729V2009ZM4098 2230H3729V2232H4098V2230Z" fill="black"/>
</g>
<g id="rectangleBuilding_26">
<path d="M3729 1785H4098V2008H3729V1785Z" fill="#004AC8"/>
<path d="M3729 1786H4098V1784H3729V1786ZM4098 2007H3729V2009H4098V2007Z" fill="black"/>
</g>
<g id="rectangleBuilding_27">
<path d="M0 1562H369V1785H0V1562Z" fill="#004AC8"/>
<path d="M0 1563H369V1561H0V1563ZM369 1784H0V1786H369V1784Z" fill="black"/>
</g>
<g id="rectangleBuilding_28">
<path d="M0 1339H369V1562H0V1339Z" fill="#004AC8"/>
<path d="M0 1340H369V1338H0V1340ZM369 1561H0V1563H369V1561Z" fill="black"/>
</g>
<g id="rectangleBuilding_29">
<path d="M0 4216H369V4439H0V4216Z" fill="#004AC8"/>
<path d="M0 4217H369V4215H0V4217ZM369 4438H0V4440H369V4438Z" fill="black"/>
</g>
<g id="rectangleBuilding_30">
<path d="M0 3993H369V4216H0V3993Z" fill="#004AC8"/>
<path d="M0 3994H369V3992H0V3994ZM369 4215H0V4217H369V4215Z" fill="black"/>
</g>
<g id="rectangleBuilding_31">
<path d="M0 3781H369V4004H0V3781Z" fill="#004AC8"/>
<path d="M0 3782H369V3780H0V3782ZM369 4003H0V4005H369V4003Z" fill="black"/>
</g>
<g id="rectangleBuilding_32">
<path d="M0 3558H369V3781H0V3558Z" fill="#004AC8"/>
<path d="M0 3559H369V3557H0V3559ZM369 3780H0V3782H369V3780Z" fill="black"/>
</g>
<g id="rectangleBuilding_33">
<path d="M0 3346H369V3569H0V3346Z" fill="#004AC8"/>
<path d="M0 3347H369V3345H0V3347ZM369 3568H0V3570H369V3568Z" fill="black"/>
</g>
<g id="rectangleBuilding_34">
<path d="M0 3123H369V3346H0V3123Z" fill="#004AC8"/>
<path d="M0 3124H369V3122H0V3124ZM369 3345H0V3347H369V3345Z" fill="black"/>
</g>
<g id="rectangleBuilding_35">
<path d="M0 2900H369V3123H0V2900Z" fill="#004AC8"/>
<path d="M0 2901H369V2899H0V2901ZM369 3122H0V3124H369V3122Z" fill="black"/>
</g>
<g id="rectangleBuilding_36">
<path d="M0 2677H369V2900H0V2677Z" fill="#004AC8"/>
<path d="M0 2678H369V2676H0V2678ZM369 2899H0V2901H369V2899Z" fill="black"/>
</g>
<g id="rectangleBuilding_37">
<path d="M0 2454H369V2677H0V2454Z" fill="#004AC8"/>
<path d="M0 2455H369V2453H0V2455ZM369 2676H0V2678H369V2676Z" fill="black"/>
</g>
<g id="rectangleBuilding_38">
<path d="M0 2231H369V2454H0V2231Z" fill="#004AC8"/>
<path d="M0 2232H369V2230H0V2232ZM369 2453H0V2455H369V2453Z" fill="black"/>
</g>
<g id="rectangleBuilding_39">
<path d="M0 2008H369V2231H0V2008Z" fill="#004AC8"/>
<path d="M0 2009H369V2007H0V2009ZM369 2230H0V2232H369V2230Z" fill="black"/>
</g>
<g id="rectangleBuilding_40">
<path d="M0 1785H369V2008H0V1785Z" fill="#004AC8"/>
<path d="M0 1786H369V1784H0V1786ZM369 2007H0V2009H369V2007Z" fill="black"/>
</g>
<g id="rectangleBuilding_41">
<path d="M369 1116H929V1339H369V1116Z" fill="#004AC8"/>
<path d="M369 1116V1115H368V1116H369ZM929 1116H930V1115H929V1116ZM369 1117H929V1115H369V1117ZM928 1116V1339H930V1116H928ZM370 1339V1116H368V1339H370Z" fill="black"/>
</g>
<g id="rectangleBuilding_42">
<path d="M3169 1116H3729V1339H3169V1116Z" fill="#004AC8"/>
<path d="M3169 1116V1115H3168V1116H3169ZM3729 1116H3730V1115H3729V1116ZM3169 1117H3729V1115H3169V1117ZM3728 1116V1339H3730V1116H3728ZM3170 1339V1116H3168V1339H3170Z" fill="black"/>
</g>
<g id="rectangleBuilding_43">
<path d="M2609 1116H3169V1339H2609V1116Z" fill="#004AC8"/>
<path d="M2609 1116V1115H2608V1116H2609ZM3169 1116H3170V1115H3169V1116ZM2609 1117H3169V1115H2609V1117ZM3168 1116V1339H3170V1116H3168ZM2610 1339V1116H2608V1339H2610Z" fill="black"/>
</g>
<g id="rectangleBuilding_44">
<path d="M2049 1116H2609V1339H2049V1116Z" fill="#004AC8"/>
<path d="M2049 1116V1115H2048V1116H2049ZM2609 1116H2610V1115H2609V1116ZM2049 1117H2609V1115H2049V1117ZM2608 1116V1339H2610V1116H2608ZM2050 1339V1116H2048V1339H2050Z" fill="black"/>
</g>
<g id="rectangleBuilding_45">
<path d="M1489 1116H2049V1339H1489V1116Z" fill="#004AC8"/>
<path d="M1489 1116V1115H1488V1116H1489ZM2049 1116H2050V1115H2049V1116ZM1489 1117H2049V1115H1489V1117ZM2048 1116V1339H2050V1116H2048ZM1490 1339V1116H1488V1339H1490Z" fill="black"/>
</g>
<g id="rectangleBuilding_46">
<path d="M929 1116H1489V1339H929V1116Z" fill="#004AC8"/>
<path d="M929 1116V1115H928V1116H929ZM1489 1116H1490V1115H1489V1116ZM929 1117H1489V1115H929V1117ZM1488 1116V1339H1490V1116H1488ZM930 1339V1116H928V1339H930Z" fill="black"/>
</g>
<g id="rectangleBuilding_47">
<path d="M369 893H929V1116H369V893Z" fill="#004AC8"/>
<path d="M369 893V892H368V893H369ZM929 893H930V892H929V893ZM929 1116V1117H930V1116H929ZM369 1116H368V1117H369V1116ZM369 894H929V892H369V894ZM928 893V1116H930V893H928ZM929 1115H369V1117H929V1115ZM370 1116V893H368V1116H370Z" fill="black"/>
</g>
<g id="rectangleBuilding_48">
<path d="M3169 893H3729V1116H3169V893Z" fill="#004AC8"/>
<path d="M3169 893V892H3168V893H3169ZM3729 893H3730V892H3729V893ZM3729 1116V1117H3730V1116H3729ZM3169 1116H3168V1117H3169V1116ZM3169 894H3729V892H3169V894ZM3728 893V1116H3730V893H3728ZM3729 1115H3169V1117H3729V1115ZM3170 1116V893H3168V1116H3170Z" fill="black"/>
</g>
<g id="rectangleBuilding_49">
<path d="M2609 893H3169V1116H2609V893Z" fill="#004AC8"/>
<path d="M2609 893V892H2608V893H2609ZM3169 893H3170V892H3169V893ZM3169 1116V1117H3170V1116H3169ZM2609 1116H2608V1117H2609V1116ZM2609 894H3169V892H2609V894ZM3168 893V1116H3170V893H3168ZM3169 1115H2609V1117H3169V1115ZM2610 1116V893H2608V1116H2610Z" fill="black"/>
</g>
<g id="rectangleBuilding_50">
<path d="M2049 893H2609V1116H2049V893Z" fill="#004AC8"/>
<path d="M2049 893V892H2048V893H2049ZM2609 893H2610V892H2609V893ZM2609 1116V1117H2610V1116H2609ZM2049 1116H2048V1117H2049V1116ZM2049 894H2609V892H2049V894ZM2608 893V1116H2610V893H2608ZM2609 1115H2049V1117H2609V1115ZM2050 1116V893H2048V1116H2050Z" fill="black"/>
</g>
<g id="rectangleBuilding_51">
<path d="M1489 893H2049V1116H1489V893Z" fill="#004AC8"/>
<path d="M1489 893V892H1488V893H1489ZM2049 893H2050V892H2049V893ZM2049 1116V1117H2050V1116H2049ZM1489 1116H1488V1117H1489V1116ZM1489 894H2049V892H1489V894ZM2048 893V1116H2050V893H2048ZM2049 1115H1489V1117H2049V1115ZM1490 1116V893H1488V1116H1490Z" fill="black"/>
</g>
<g id="rectangleBuilding_52">
<path d="M929 893H1489V1116H929V893Z" fill="#004AC8"/>
<path d="M929 893V892H928V893H929ZM1489 893H1490V892H1489V893ZM1489 1116V1117H1490V1116H1489ZM929 1116H928V1117H929V1116ZM929 894H1489V892H929V894ZM1488 893V1116H1490V893H1488ZM1489 1115H929V1117H1489V1115ZM930 1116V893H928V1116H930Z" fill="black"/>
</g>
<g id="rectangleBuilding_53">
<path d="M369 224H929V447H369V224Z" fill="#004AC8"/>
<path d="M369 224V223H368V224H369ZM929 224H930V223H929V224ZM929 447V448H930V447H929ZM369 447H368V448H369V447ZM369 225H929V223H369V225ZM928 224V447H930V224H928ZM929 446H369V448H929V446ZM370 447V224H368V447H370Z" fill="black"/>
</g>
<g id="rectangleBuilding_54">
<path d="M3169 224H3729V447H3169V224Z" fill="#004AC8"/>
<path d="M3169 224V223H3168V224H3169ZM3729 224H3730V223H3729V224ZM3729 447V448H3730V447H3729ZM3169 447H3168V448H3169V447ZM3169 225H3729V223H3169V225ZM3728 224V447H3730V224H3728ZM3729 446H3169V448H3729V446ZM3170 447V224H3168V447H3170Z" fill="black"/>
</g>
<g id="rectangleBuilding_55">
<path d="M2609 224H3169V447H2609V224Z" fill="#004AC8"/>
<path d="M2609 224V223H2608V224H2609ZM3169 224H3170V223H3169V224ZM3169 447V448H3170V447H3169ZM2609 447H2608V448H2609V447ZM2609 225H3169V223H2609V225ZM3168 224V447H3170V224H3168ZM3169 446H2609V448H3169V446ZM2610 447V224H2608V447H2610Z" fill="black"/>
</g>
<g id="rectangleBuilding_56">
<path d="M2049 224H2609V447H2049V224Z" fill="#004AC8"/>
<path d="M2049 224V223H2048V224H2049ZM2609 224H2610V223H2609V224ZM2609 447V448H2610V447H2609ZM2049 447H2048V448H2049V447ZM2049 225H2609V223H2049V225ZM2608 224V447H2610V224H2608ZM2609 446H2049V448H2609V446ZM2050 447V224H2048V447H2050Z" fill="black"/>
</g>
<g id="rectangleBuilding_57">
<path d="M1489 224H2049V447H1489V224Z" fill="#004AC8"/>
<path d="M1489 224V223H1488V224H1489ZM2049 224H2050V223H2049V224ZM2049 447V448H2050V447H2049ZM1489 447H1488V448H1489V447ZM1489 225H2049V223H1489V225ZM2048 224V447H2050V224H2048ZM2049 446H1489V448H2049V446ZM1490 447V224H1488V447H1490Z" fill="black"/>
</g>
<g id="rectangleBuilding_58">
<path d="M929 224H1489V447H929V224Z" fill="#004AC8"/>
<path d="M929 224V223H928V224H929ZM1489 224H1490V223H1489V224ZM1489 447V448H1490V447H1489ZM929 447H928V448H929V447ZM929 225H1489V223H929V225ZM1488 224V447H1490V224H1488ZM1489 446H929V448H1489V446ZM930 447V224H928V447H930Z" fill="black"/>
</g>
<g id="rectangleBuilding_59">
<path d="M369 447H929V670H369V447Z" fill="#004AC8"/>
<path d="M369 447V446H368V447H369ZM929 447H930V446H929V447ZM929 670V671H930V670H929ZM369 670H368V671H369V670ZM369 448H929V446H369V448ZM928 447V670H930V447H928ZM929 669H369V671H929V669ZM370 670V447H368V670H370Z" fill="black"/>
</g>
<g id="rectangleBuilding_60">
<path d="M3169 447H3729V670H3169V447Z" fill="#004AC8"/>
<path d="M3169 447V446H3168V447H3169ZM3729 447H3730V446H3729V447ZM3729 670V671H3730V670H3729ZM3169 670H3168V671H3169V670ZM3169 448H3729V446H3169V448ZM3728 447V670H3730V447H3728ZM3729 669H3169V671H3729V669ZM3170 670V447H3168V670H3170Z" fill="black"/>
</g>
<g id="rectangleBuilding_61">
<path d="M2609 447H3169V670H2609V447Z" fill="#004AC8"/>
<path d="M2609 447V446H2608V447H2609ZM3169 447H3170V446H3169V447ZM3169 670V671H3170V670H3169ZM2609 670H2608V671H2609V670ZM2609 448H3169V446H2609V448ZM3168 447V670H3170V447H3168ZM3169 669H2609V671H3169V669ZM2610 670V447H2608V670H2610Z" fill="black"/>
</g>
<g id="rectangleBuilding_62">
<path d="M2049 447H2609V670H2049V447Z" fill="#004AC8"/>
<path d="M2049 447V446H2048V447H2049ZM2609 447H2610V446H2609V447ZM2609 670V671H2610V670H2609ZM2049 670H2048V671H2049V670ZM2049 448H2609V446H2049V448ZM2608 447V670H2610V447H2608ZM2609 669H2049V671H2609V669ZM2050 670V447H2048V670H2050Z" fill="black"/>
</g>
<g id="rectangleBuilding_63">
<path d="M1489 447H2049V670H1489V447Z" fill="#004AC8"/>
<path d="M1489 447V446H1488V447H1489ZM2049 447H2050V446H2049V447ZM2049 670V671H2050V670H2049ZM1489 670H1488V671H1489V670ZM1489 448H2049V446H1489V448ZM2048 447V670H2050V447H2048ZM2049 669H1489V671H2049V669ZM1490 670V447H1488V670H1490Z" fill="black"/>
</g>
<g id="rectangleBuilding_64">
<path d="M929 447H1489V670H929V447Z" fill="#004AC8"/>
<path d="M929 447V446H928V447H929ZM1489 447H1490V446H1489V447ZM1489 670V671H1490V670H1489ZM929 670H928V671H929V670ZM929 448H1489V446H929V448ZM1488 447V670H1490V447H1488ZM1489 669H929V671H1489V669ZM930 670V447H928V670H930Z" fill="black"/>
</g>
<g id="rectangleBuilding_65">
<path d="M929 1H1489V224H929V1Z" fill="#004AC8"/>
<path d="M1489 224V225H1490V224H1489ZM929 224H928V225H929V224ZM1488 1V224H1490V1H1488ZM1489 223H929V225H1489V223ZM930 224V1H928V224H930Z" fill="black"/>
</g>
<g id="rectangleBuilding_66">
<path d="M369 670H929V893H369V670Z" fill="#004AC8"/>
<path d="M369 670V669H368V670H369ZM929 670H930V669H929V670ZM929 893V894H930V893H929ZM369 893H368V894H369V893ZM369 671H929V669H369V671ZM928 670V893H930V670H928ZM929 892H369V894H929V892ZM370 893V670H368V893H370Z" fill="black"/>
</g>
<g id="rectangleBuilding_67">
<path d="M3169 670H3729V893H3169V670Z" fill="#004AC8"/>
<path d="M3169 670V669H3168V670H3169ZM3729 670H3730V669H3729V670ZM3729 893V894H3730V893H3729ZM3169 893H3168V894H3169V893ZM3169 671H3729V669H3169V671ZM3728 670V893H3730V670H3728ZM3729 892H3169V894H3729V892ZM3170 893V670H3168V893H3170Z" fill="black"/>
</g>
<g id="rectangleBuilding_68">
<path d="M2609 670H3169V893H2609V670Z" fill="#004AC8"/>
<path d="M2609 670V669H2608V670H2609ZM3169 670H3170V669H3169V670ZM3169 893V894H3170V893H3169ZM2609 893H2608V894H2609V893ZM2609 671H3169V669H2609V671ZM3168 670V893H3170V670H3168ZM3169 892H2609V894H3169V892ZM2610 893V670H2608V893H2610Z" fill="black"/>
</g>
<g id="rectangleBuilding_69">
<path d="M2049 670H2609V893H2049V670Z" fill="#004AC8"/>
<path d="M2049 670V669H2048V670H2049ZM2609 670H2610V669H2609V670ZM2609 893V894H2610V893H2609ZM2049 893H2048V894H2049V893ZM2049 671H2609V669H2049V671ZM2608 670V893H2610V670H2608ZM2609 892H2049V894H2609V892ZM2050 893V670H2048V893H2050Z" fill="black"/>
</g>
<g id="rectangleBuilding_70">
<path d="M1489 670H2049V893H1489V670Z" fill="#004AC8"/>
<path d="M1489 670V669H1488V670H1489ZM2049 670H2050V669H2049V670ZM2049 893V894H2050V893H2049ZM1489 893H1488V894H1489V893ZM1489 671H2049V669H1489V671ZM2048 670V893H2050V670H2048ZM2049 892H1489V894H2049V892ZM1490 893V670H1488V893H1490Z" fill="black"/>
</g>
<g id="rectangleBuilding_71">
<path d="M929 670H1489V893H929V670Z" fill="#004AC8"/>
<path d="M929 670V669H928V670H929ZM1489 670H1490V669H1489V670ZM1489 893V894H1490V893H1489ZM929 893H928V894H929V893ZM929 671H1489V669H929V671ZM1488 670V893H1490V670H1488ZM1489 892H929V894H1489V892ZM930 893V670H928V893H930Z" fill="black"/>
</g>
<g id="rectangleBuilding_72">
<path d="M369 1H929V224H369V1Z" fill="#004AC8"/>
<path d="M929 224V225H930V224H929ZM369 224H368V225H369V224ZM928 1V224H930V1H928ZM929 223H369V225H929V223ZM370 224V1H368V224H370Z" fill="black"/>
</g>
<g id="rectangleBuilding_73">
<path d="M3169 1H3729V224H3169V1Z" fill="#004AC8"/>
<path d="M3729 224V225H3730V224H3729ZM3169 224H3168V225H3169V224ZM3728 1V224H3730V1H3728ZM3729 223H3169V225H3729V223ZM3170 224V1H3168V224H3170Z" fill="black"/>
</g>
<g id="rectangleBuilding_74">
<path d="M2609 1H3169V224H2609V1Z" fill="#004AC8"/>
<path d="M3169 224V225H3170V224H3169ZM2609 224H2608V225H2609V224ZM3168 1V224H3170V1H3168ZM3169 223H2609V225H3169V223ZM2610 224V1H2608V224H2610Z" fill="black"/>
</g>
<g id="rectangleBuilding_75">
<path d="M2049 1H2609V224H2049V1Z" fill="#004AC8"/>
<path d="M2609 224V225H2610V224H2609ZM2049 224H2048V225H2049V224ZM2608 1V224H2610V1H2608ZM2609 223H2049V225H2609V223ZM2050 224V1H2048V224H2050Z" fill="black"/>
</g>
<g id="rectangleBuilding_76">
<path d="M1489 1H2049V224H1489V1Z" fill="#004AC8"/>
<path d="M2049 224V225H2050V224H2049ZM1489 224H1488V225H1489V224ZM2048 1V224H2050V1H2048ZM2049 223H1489V225H2049V223ZM1490 224V1H1488V224H1490Z" fill="black"/>
</g>
</g>
<g id="EXPO ARREDO SA">
<path id="A2t" d="M3325.62 1105.12H3246.08L3231.14 1149.51H3183.97L3261.03 933.59H3312L3388.47 1149.51H3339.54L3325.62 1105.12ZM3313.03 1067.92L3286.07 982.955L3258.24 1067.92H3313.03Z" fill="white"/>
<path id="St" d="M3077.48 1118.3C3088.12 1118.3 3096.77 1117.13 3103.41 1114.79C3116.01 1110.3 3122.3 1101.95 3122.3 1089.74C3122.3 1082.61 3119.18 1077.09 3112.93 1073.19C3106.68 1069.38 3096.87 1066.01 3083.49 1063.08L3060.63 1057.95C3038.17 1052.88 3022.65 1047.36 3014.05 1041.4C2999.5 1031.44 2992.23 1015.86 2992.23 994.672C2992.23 975.336 2999.26 959.271 3013.32 946.479C3027.38 933.686 3048.04 927.289 3075.28 927.289C3098.04 927.289 3117.42 933.344 3133.44 945.453C3149.55 957.465 3158 974.945 3158.78 997.895H3115.42C3114.64 984.906 3108.97 975.678 3098.43 970.209C3091.4 966.596 3082.66 964.789 3072.21 964.789C3060.59 964.789 3051.31 967.133 3044.38 971.82C3037.44 976.508 3033.97 983.051 3033.97 991.449C3033.97 999.164 3037.39 1004.93 3044.23 1008.73C3048.62 1011.27 3058 1014.25 3072.35 1017.67L3109.56 1026.61C3125.87 1030.51 3138.17 1035.74 3146.47 1042.28C3159.37 1052.44 3165.81 1067.13 3165.81 1086.37C3165.81 1106.1 3158.24 1122.5 3143.11 1135.59C3128.07 1148.58 3106.78 1155.07 3079.24 1155.07C3051.11 1155.07 3028.99 1148.68 3012.88 1135.88C2996.77 1122.99 2988.71 1105.32 2988.71 1082.86H3031.78C3033.14 1092.72 3035.83 1100.09 3039.83 1104.97C3047.16 1113.86 3059.71 1118.3 3077.48 1118.3Z" fill="white"/>
<path id="O2t" d="M2777.63 1155.52C2746.77 1155.52 2723.18 1147.12 2706.88 1130.32C2685 1109.71 2674.06 1080.03 2674.06 1041.26C2674.06 1001.71 2685 972.02 2706.88 952.195C2723.18 935.398 2746.77 927 2777.63 927C2808.49 927 2832.07 935.398 2848.38 952.195C2870.16 972.02 2881.04 1001.71 2881.04 1041.26C2881.04 1080.03 2870.16 1109.71 2848.38 1130.32C2832.07 1147.12 2808.49 1155.52 2777.63 1155.52ZM2820.25 1097.51C2830.7 1084.32 2835.93 1065.57 2835.93 1041.26C2835.93 1017.04 2830.65 998.338 2820.11 985.154C2809.66 971.873 2795.5 965.232 2777.63 965.232C2759.76 965.232 2745.5 971.824 2734.85 985.008C2724.21 998.191 2718.89 1016.94 2718.89 1041.26C2718.89 1065.57 2724.21 1084.32 2734.85 1097.51C2745.5 1110.69 2759.76 1117.28 2777.63 1117.28C2795.5 1117.28 2809.71 1110.69 2820.25 1097.51Z" fill="white"/>
<path id="Dt" d="M2558.34 1149.51H2465.32V933.59H2558.34C2571.72 933.785 2582.85 935.348 2591.74 938.277C2606.88 943.258 2619.13 952.389 2628.51 965.67C2636.03 976.412 2641.15 988.033 2643.89 1000.53C2646.62 1013.03 2647.99 1024.95 2647.99 1036.28C2647.99 1064.99 2642.23 1089.3 2630.7 1109.22C2615.08 1136.08 2590.96 1149.51 2558.34 1149.51ZM2591.88 988.668C2584.95 976.949 2571.23 971.09 2550.72 971.09H2509.12V1112.01H2550.72C2572.01 1112.01 2586.86 1101.51 2595.25 1080.51C2599.84 1068.99 2602.14 1055.27 2602.14 1039.35C2602.14 1017.38 2598.72 1000.48 2591.88 988.668Z" fill="white"/>
<path id="E2t" d="M2415.52 1055.17H2310.63V1110.69H2430.17V1149.51H2266.54V933.59H2424.89V971.822H2310.63V1017.67H2415.52V1055.17Z" fill="white"/>
<path id="R2t" d="M2140.13 1064.84H2093.54V1149.51H2049.45V933.59H2155.36C2170.5 933.883 2182.12 935.738 2190.22 939.156C2198.43 942.574 2205.36 947.604 2211.03 954.244C2215.71 959.713 2219.42 965.768 2222.16 972.408C2224.89 979.049 2226.26 986.617 2226.26 995.113C2226.26 1005.37 2223.67 1015.47 2218.5 1025.44C2213.32 1035.3 2204.78 1042.28 2192.86 1046.38C2202.82 1050.39 2209.85 1056.1 2213.96 1063.52C2218.15 1070.85 2220.25 1082.08 2220.25 1097.21V1111.71C2220.25 1121.58 2220.64 1128.27 2221.43 1131.78C2222.6 1137.35 2225.33 1141.45 2229.63 1144.09V1149.51H2179.97C2178.6 1144.72 2177.63 1140.87 2177.04 1137.94C2175.87 1131.88 2175.23 1125.68 2175.14 1119.33L2174.84 1099.26C2174.65 1085.49 2172.11 1076.31 2167.23 1071.72C2162.44 1067.13 2153.41 1064.84 2140.13 1064.84ZM2167.52 1025.58C2176.5 1021.48 2181 1013.38 2181 1001.27C2181 988.18 2176.65 979.391 2167.96 974.898C2163.08 972.359 2155.75 971.09 2145.99 971.09H2093.54V1029.1H2144.67C2154.82 1029.1 2162.44 1027.93 2167.52 1025.58Z" fill="white"/>
<path id="Rt" d="M1923.33 1064.84H1876.75V1149.51H1832.66V933.59H1938.56C1953.7 933.883 1965.32 935.738 1973.43 939.156C1981.63 942.574 1988.56 947.604 1994.23 954.244C1998.92 959.713 2002.63 965.768 2005.36 972.408C2008.1 979.049 2009.46 986.617 2009.46 995.113C2009.46 1005.37 2006.88 1015.47 2001.7 1025.44C1996.52 1035.3 1987.98 1042.28 1976.06 1046.38C1986.03 1050.39 1993.06 1056.1 1997.16 1063.52C2001.36 1070.85 2003.46 1082.08 2003.46 1097.21V1111.71C2003.46 1121.58 2003.85 1128.27 2004.63 1131.78C2005.8 1137.35 2008.54 1141.45 2012.83 1144.09V1149.51H1963.17C1961.81 1144.72 1960.83 1140.87 1960.24 1137.94C1959.07 1131.88 1958.44 1125.68 1958.34 1119.33L1958.05 1099.26C1957.85 1085.49 1955.31 1076.31 1950.43 1071.72C1945.64 1067.13 1936.61 1064.84 1923.33 1064.84ZM1950.72 1025.58C1959.71 1021.48 1964.2 1013.38 1964.2 1001.27C1964.2 988.18 1959.85 979.391 1951.16 974.898C1946.28 972.359 1938.96 971.09 1929.19 971.09H1876.75V1029.1H1927.87C1938.03 1029.1 1945.64 1027.93 1950.72 1025.58Z" fill="white"/>
<path id="At" d="M1741.25 1105.12H1661.71L1646.77 1149.51H1599.6L1676.65 933.59H1727.63L1804.09 1149.51H1755.17L1741.25 1105.12ZM1728.65 1067.92L1701.7 982.955L1673.87 1067.92H1728.65Z" fill="white"/>
<path id="Ot" d="M1404.48 1155.52C1373.62 1155.52 1350.04 1147.12 1333.73 1130.32C1311.86 1109.71 1300.92 1080.03 1300.92 1041.26C1300.92 1001.71 1311.86 972.02 1333.73 952.195C1350.04 935.398 1373.62 927 1404.48 927C1435.34 927 1458.93 935.398 1475.23 952.195C1497.01 972.02 1507.9 1001.71 1507.9 1041.26C1507.9 1080.03 1497.01 1109.71 1475.23 1130.32C1458.93 1147.12 1435.34 1155.52 1404.48 1155.52ZM1447.11 1097.51C1457.56 1084.32 1462.78 1065.57 1462.78 1041.26C1462.78 1017.04 1457.51 998.338 1446.96 985.154C1436.51 971.873 1422.35 965.232 1404.48 965.232C1386.61 965.232 1372.35 971.824 1361.71 985.008C1351.06 998.191 1345.74 1016.94 1345.74 1041.26C1345.74 1065.57 1351.06 1084.32 1361.71 1097.51C1372.35 1110.69 1386.61 1117.28 1404.48 1117.28C1422.35 1117.28 1436.56 1110.69 1447.11 1097.51Z" fill="white"/>
<path id="Pt" d="M1200.58 1071.87H1154.73V1149.51H1109.9V933.59H1203.95C1225.62 933.59 1242.91 939.156 1255.8 950.289C1268.69 961.422 1275.14 978.658 1275.14 1002C1275.14 1027.49 1268.69 1045.5 1255.8 1056.05C1242.91 1066.6 1224.5 1071.87 1200.58 1071.87ZM1221.67 1026.9C1227.53 1021.72 1230.46 1013.52 1230.46 1002.29C1230.46 991.061 1227.48 983.053 1221.52 978.268C1215.66 973.482 1207.41 971.09 1196.77 971.09H1154.73V1034.66H1196.77C1207.41 1034.66 1215.71 1032.08 1221.67 1026.9Z" fill="white"/>
<path id="Xt" d="M1082.36 1149.51H1027.58L986.562 1075.97L943.203 1149.51H890.762L960.195 1039.5L894.131 933.59H948.037L986.562 1003.76L1026.11 933.59H1078.26L1012.2 1037.74L1082.36 1149.51Z" fill="white"/>
<path id="Et" d="M858.975 1055.17H754.092V1110.69H873.623V1149.51H710V933.59H868.35V971.822H754.092V1017.67H858.975V1055.17Z" fill="white"/>
</g>
<g id="Expo">
<path id="O" fill-rule="evenodd" clip-rule="evenodd" d="M2793.14 184H2887.43V215.429H2856L2848.14 223.286L2840.29 231.143L2832.43 239L2824.57 246.857L2816.71 254.714L2785.29 286.143L2777.43 294V325.429V608.286V639.714V655.429L2801 710.429L2808.86 718.286L2816.71 726.143L2824.57 734L2832.43 741.857L2840.29 749.714H2887.43V781.143H2824.57H2808.86H2793.14H2777.43L2769.57 773.286L2761.71 765.429L2746 749.714L2730.29 734L2722.43 726.143L2714.57 718.286L2706.71 710.429L2698.86 702.571L2691 694.714L2683.14 686.857L2675.29 679L2667.43 671.143L2651.71 647.571L2636 624V608.286V592.571V576.857V388.286V372.571L2651.71 309.714L2659.57 301.857L2667.43 294L2675.29 286.143L2683.14 278.286L2691 270.429L2698.86 262.571L2706.71 254.714L2714.57 246.857L2722.43 239L2730.29 231.143L2738.14 223.286L2746 215.429L2753.86 207.571L2761.71 199.714L2777.43 184H2793.14ZM3028.86 184H2934.57V215.429H2966L2973.86 223.286L2981.71 231.143L2989.57 239L2997.43 246.857L3005.29 254.714L3036.71 286.143L3044.57 294V325.429V608.286V639.714V655.429L3021 710.429L3013.14 718.286L3005.29 726.143L2997.43 734L2989.57 741.857L2981.71 749.714H2934.57V781.143H2997.43H3013.14H3028.86H3044.57L3052.43 773.286L3060.29 765.429L3076 749.714L3091.71 734L3099.57 726.143L3107.43 718.286L3115.29 710.429L3123.14 702.571L3131 694.714L3138.86 686.857L3146.71 679L3154.57 671.143L3170.29 647.571L3186 624V608.286V592.571V576.857V388.286V372.571L3170.29 309.714L3162.43 301.857L3154.57 294L3146.71 286.143L3138.86 278.286L3131 270.429L3123.14 262.571L3115.29 254.714L3107.43 246.857L3099.57 239L3091.71 231.143L3083.86 223.286L3076 215.429L3068.14 207.571L3060.29 199.714L3044.57 184H3028.86Z" fill="white"/>
<path id="X" fill-rule="evenodd" clip-rule="evenodd" d="M1492 216.405V185H1774.64V216.405H1703.98L2010.18 750.284H2057.28V781.688H1774.64V750.284H1837.45V734.581L1539.11 216.405H1492ZM2073 185H1853.17V216.405H1939.53V263.512L1853.17 365.577V389.13H1868.87L2018.04 216.405H2073V185ZM1711.83 781.664H1492V750.259H1546.96L1696.13 577.534H1711.83V601.087L1625.47 703.152V750.259H1711.83V781.664Z" fill="white"/>
<path id="P" fill-rule="evenodd" clip-rule="evenodd" d="M2119 184V215.4H2166.1H2181.8L2189.65 223.25L2197.5 231.1V733.497L2189.65 741.347L2181.8 749.197H2119V780.597H2401.6V749.197H2338.8L2330.95 741.347L2323.1 733.497V184H2119ZM2385.9 184V215.4H2433L2440.85 223.25L2448.7 231.1L2456.55 238.95L2464.4 246.8L2472.25 254.65L2480.1 262.5V435.199L2472.25 443.049L2464.4 450.899L2456.55 458.749L2448.7 466.599L2440.85 474.449L2433 482.299H2385.9V513.698H2495.8L2511.5 497.999L2527.2 482.299L2535.05 474.449L2542.9 466.599L2550.75 458.749L2558.6 450.899L2566.45 443.049L2574.3 435.199L2582.15 427.349L2590 419.499V262.5L2582.15 254.65L2574.3 246.8L2566.45 238.95L2558.6 231.1L2550.75 223.25L2542.9 215.4L2535.05 207.55L2519.35 191.85L2511.5 184H2495.8H2385.9Z" fill="white"/>
<path id="E" fill-rule="evenodd" clip-rule="evenodd" d="M912 185H1131.88V781.822H912V734.705H974.823V232.118L966.97 224.265L959.118 216.412H912V185ZM1179 467.701H1241.82L1249.68 459.849L1257.53 451.996L1265.38 444.143L1273.24 436.29L1281.09 428.437L1288.94 420.584V342.055H1320.35V624.76H1288.94V546.231L1281.09 538.378L1273.24 530.525L1265.38 522.672L1257.53 514.819L1249.68 506.966L1241.82 499.113H1179V467.701ZM1430.29 185H1179V216.412H1351.76L1359.62 224.265L1367.47 232.118L1375.32 239.97L1383.18 247.823L1391.03 255.676L1398.88 263.529V342.058V357.764H1414.59H1430.29V185ZM1194.71 781.82H1446V609.056H1430.29H1414.59V624.762V703.291L1406.73 711.144L1398.88 718.997L1391.03 726.85L1383.18 734.703L1375.32 742.556L1367.47 750.409H1194.71V781.82Z" fill="white"/>
</g>
</g>
</svg>
